<svg width="70" height="70" viewBox="0 0 70 70" fill="none" xmlns="http://www.w3.org/2000/svg">
<mask id="mask0_114_289" style="mask-type:luminance" maskUnits="userSpaceOnUse" x="0" y="0" width="70" height="70">
<path d="M0 7.62939e-06H70V70H0V7.62939e-06Z" fill="white"/>
</mask>
<g mask="url(#mask0_114_289)">
<path d="M15.0391 41.2891L3.66406 22.6256C2.21348 20.4545 1.36719 17.8459 1.36719 15.0391C1.36719 7.48809 7.48809 1.36719 15.0391 1.36719C22.59 1.36719 28.7109 7.48809 28.7109 15.0391C28.7109 17.8459 27.8646 20.4545 26.4141 22.6256L15.0391 41.2891Z" stroke="#2B2A29" stroke-width="1.5" stroke-miterlimit="10" stroke-linecap="round" stroke-linejoin="round"/>
<path d="M20.5078 15.0391C20.5078 18.0592 18.0592 20.5078 15.0391 20.5078C12.0189 20.5078 9.57031 18.0592 9.57031 15.0391C9.57031 12.0189 12.0189 9.57031 15.0391 9.57031C18.0592 9.57031 20.5078 12.0189 20.5078 15.0391Z" stroke="#2B2A29" stroke-width="1.5" stroke-miterlimit="10" stroke-linecap="round" stroke-linejoin="round"/>
<path d="M54.9609 63.1641C56.4717 63.1641 57.6953 64.3891 57.6953 65.8984C57.6953 67.4092 56.4717 68.6328 54.9609 68.6328C53.4502 68.6328 52.2266 67.4092 52.2266 65.8984C52.2266 64.3891 53.4502 63.1641 54.9609 63.1641Z" stroke="#2B2A29" stroke-width="1.5" stroke-miterlimit="10" stroke-linecap="round" stroke-linejoin="round"/>
<path d="M54.9609 63.1641L43.5859 45.3209C42.1354 43.1498 41.2891 40.5412 41.2891 37.7344C41.2891 30.1834 47.41 24.0625 54.9609 24.0625C62.5119 24.0625 68.6328 30.1834 68.6328 37.7344C68.6328 40.5412 67.7865 43.1498 66.3359 45.3209L54.9609 63.1641Z" stroke="#2B2A29" stroke-width="1.5" stroke-miterlimit="10" stroke-linecap="round" stroke-linejoin="round"/>
<path d="M60.4297 37.7344C60.4297 40.7545 57.9811 43.2031 54.9609 43.2031C51.9408 43.2031 49.4922 40.7545 49.4922 37.7344C49.4922 34.7143 51.9408 32.2656 54.9609 32.2656C57.9811 32.2656 60.4297 34.7143 60.4297 37.7344Z" stroke="#2B2A29" stroke-width="1.5" stroke-miterlimit="10" stroke-linecap="round" stroke-linejoin="round"/>
<path d="M17.7734 44.0234C17.7734 45.5342 16.5498 46.7578 15.0391 46.7578C13.5283 46.7578 12.3047 45.5342 12.3047 44.0234C12.3047 42.5141 13.5283 41.2891 15.0391 41.2891C16.5498 41.2891 17.7734 42.5141 17.7734 44.0234Z" stroke="#2B2A29" stroke-width="1.5" stroke-miterlimit="10" stroke-linecap="round" stroke-linejoin="round"/>
<path d="M34.3164 65.8984C34.3164 66.6535 33.7043 67.2656 32.9492 67.2656C32.1941 67.2656 31.582 66.6535 31.582 65.8984C31.582 65.1433 32.1941 64.5313 32.9492 64.5313C33.7043 64.5313 34.3164 65.1433 34.3164 65.8984Z" fill="#2B2A29"/>
<path d="M17.7734 44.0234H29.5312C32.5514 44.0234 35 46.4721 35 49.4922C35 52.5123 32.5514 54.9609 29.5312 54.9609H13.125C10.1049 54.9609 7.65625 57.4096 7.65625 60.4297C7.65625 63.4498 10.1049 65.8984 13.125 65.8984H26.7969" stroke="#2B2A29" stroke-width="1.5" stroke-miterlimit="10" stroke-linecap="round" stroke-linejoin="round"/>
<path d="M39.1016 65.8984H52.2266" stroke="#2B2A29" stroke-width="1.5" stroke-miterlimit="10" stroke-linecap="round" stroke-linejoin="round"/>
</g>
</svg>
