<svg width="70" height="70" viewBox="0 0 70 70" fill="none" xmlns="http://www.w3.org/2000/svg">
<path d="M13.1479 68.9746H7.86401C7.10892 68.9746 6.49683 68.3625 6.49683 67.6074V64.8938C6.49683 64.1387 7.10892 63.5266 7.86401 63.5266H62.1403C62.8954 63.5266 63.5075 64.1387 63.5075 64.8938V67.6074C63.5075 68.3625 62.8954 68.9746 62.1403 68.9746H12.2523" stroke="#2B2A29" stroke-width="1.5" stroke-miterlimit="10" stroke-linecap="round" stroke-linejoin="round"/>
<path d="M28.9133 63.5267H41.0944V60.2424C41.0944 59.6667 40.6277 59.2 40.0519 59.2H29.9558C29.3801 59.2 28.9133 59.6667 28.9133 60.2424V63.5267Z" stroke="#2B2A29" stroke-width="1.5" stroke-miterlimit="10" stroke-linecap="round" stroke-linejoin="round"/>
<path d="M35.0008 42.7458C37.1608 42.7458 38.9119 44.4969 38.9119 46.657V59.2001H31.0898V46.657C31.0897 44.4969 32.8408 42.7458 35.0008 42.7458Z" stroke="#2B2A29" stroke-width="1.5" stroke-miterlimit="10" stroke-linecap="round" stroke-linejoin="round"/>
<path d="M22.1919 42.4717C20.5459 42.4717 19.2117 43.8059 19.2117 45.4519V51.8149C19.2117 52.0414 19.3953 52.2251 19.6218 52.2251H24.7619C24.9884 52.2251 25.1721 52.0414 25.1721 51.8149V45.4519C25.1721 43.8061 23.8378 42.4717 22.1919 42.4717Z" stroke="#2B2A29" stroke-width="1.5" stroke-miterlimit="10" stroke-linecap="round" stroke-linejoin="round"/>
<path d="M22.1919 23.0679C20.5459 23.0679 19.2117 24.4021 19.2117 26.0481V32.4111C19.2117 32.6376 19.3953 32.8212 19.6218 32.8212H24.7619C24.9884 32.8212 25.1721 32.6376 25.1721 32.4111V26.0481C25.1721 24.4021 23.8378 23.0679 22.1919 23.0679Z" stroke="#2B2A29" stroke-width="1.5" stroke-miterlimit="10" stroke-linecap="round" stroke-linejoin="round"/>
<path d="M47.813 42.4717C49.4589 42.4717 50.7932 43.8059 50.7932 45.4519V51.8149C50.7932 52.0414 50.6095 52.2251 50.383 52.2251H45.2429C45.0164 52.2251 44.8328 52.0414 44.8328 51.8149V45.4519C44.8328 43.8061 46.167 42.4717 47.813 42.4717Z" stroke="#2B2A29" stroke-width="1.5" stroke-miterlimit="10" stroke-linecap="round" stroke-linejoin="round"/>
<path d="M47.813 23.0679C49.4589 23.0679 50.7932 24.4021 50.7932 26.0481V32.4111C50.7932 32.6376 50.6095 32.8212 50.383 32.8212H45.2429C45.0164 32.8212 44.8328 32.6376 44.8328 32.4111V26.0481C44.8328 24.4021 46.167 23.0679 47.813 23.0679Z" stroke="#2B2A29" stroke-width="1.5" stroke-miterlimit="10" stroke-linecap="round" stroke-linejoin="round"/>
<path d="M34.9997 23.0679C36.6457 23.0679 37.9799 24.4021 37.9799 26.0481V32.4111C37.9799 32.6376 37.7963 32.8212 37.5698 32.8212H32.4297C32.2031 32.8212 32.0195 32.6376 32.0195 32.4111V26.0481C32.0195 24.4021 33.3538 23.0679 34.9997 23.0679Z" stroke="#2B2A29" stroke-width="1.5" stroke-miterlimit="10" stroke-linecap="round" stroke-linejoin="round"/>
<path d="M34.9997 7.39038C36.6457 7.39038 37.9799 8.72462 37.9799 10.3706V11.6746C37.9799 11.9011 37.7963 12.0848 37.5698 12.0848H32.4297C32.2031 12.0848 32.0195 11.9011 32.0195 11.6746V10.3706C32.0195 8.72462 33.3538 7.39038 34.9997 7.39038Z" stroke="#2B2A29" stroke-width="1.5" stroke-miterlimit="10" stroke-linecap="round" stroke-linejoin="round"/>
<path d="M32.0195 18.6526H37.9799" stroke="#2B2A29" stroke-width="1.5" stroke-miterlimit="10" stroke-linecap="round" stroke-linejoin="round"/>
<path d="M19.2117 18.6526H25.1721" stroke="#2B2A29" stroke-width="1.5" stroke-miterlimit="10" stroke-linecap="round" stroke-linejoin="round"/>
<path d="M50.7932 18.6526H44.8328" stroke="#2B2A29" stroke-width="1.5" stroke-miterlimit="10" stroke-linecap="round" stroke-linejoin="round"/>
<path d="M56.0271 37.9601V11.712C56.0271 10.9698 55.4254 10.3681 54.6832 10.3681H51.4272C50.685 10.3681 50.0833 9.76637 50.0833 9.02412V7.86816C50.0833 7.12592 49.4816 6.52422 48.7393 6.52422H44.1807C43.6824 6.52422 43.2289 6.24627 42.993 5.80713C41.4644 2.96105 38.4598 1.02539 35.0026 1.02539C31.5454 1.02539 28.5409 2.96106 27.012 5.8074C26.7761 6.24641 26.3226 6.52449 25.8243 6.52449H21.2657C20.5234 6.52449 19.9217 7.12619 19.9217 7.86844V9.0244C19.9217 9.76664 19.32 10.3683 18.5778 10.3683H15.322C14.5797 10.3683 13.978 10.97 13.978 11.7123V63.5268H56.027V37.4957" stroke="#2B2A29" stroke-width="1.5" stroke-miterlimit="10" stroke-linecap="round" stroke-linejoin="round"/>
<path d="M42.7219 12.0845H46.5149" stroke="#2B2A29" stroke-width="1.5" stroke-miterlimit="10" stroke-linecap="round" stroke-linejoin="round"/>
<path d="M27.2813 12.0845H23.4883" stroke="#2B2A29" stroke-width="1.5" stroke-miterlimit="10" stroke-linecap="round" stroke-linejoin="round"/>
<path d="M32.0195 38.0571H37.9799" stroke="#2B2A29" stroke-width="1.5" stroke-miterlimit="10" stroke-linecap="round" stroke-linejoin="round"/>
<path d="M19.2117 38.0571H25.1721" stroke="#2B2A29" stroke-width="1.5" stroke-miterlimit="10" stroke-linecap="round" stroke-linejoin="round"/>
<path d="M50.7932 38.0571H44.8328" stroke="#2B2A29" stroke-width="1.5" stroke-miterlimit="10" stroke-linecap="round" stroke-linejoin="round"/>
</svg>
