<svg width="70" height="70" viewBox="0 0 70 70" fill="none" xmlns="http://www.w3.org/2000/svg">
<path d="M57.0829 54.0493C53.5682 62.7978 45.0055 68.9746 35 68.9746C21.8616 68.9746 11.2109 58.3239 11.2109 45.1855C11.2109 32.0471 21.8616 21.3965 35 21.3965C48.1384 21.3965 58.7891 32.0471 58.7891 45.1855C58.7891 46.6423 58.6581 48.0684 58.4073 49.4528" stroke="#2B2A29" stroke-width="1.5" stroke-miterlimit="10" stroke-linecap="round" stroke-linejoin="round"/>
<path d="M35 68.9746C40.9651 68.9746 45.8008 58.3239 45.8008 45.1855C45.8008 32.0472 40.9651 21.3965 35 21.3965C29.0349 21.3965 24.1992 32.0472 24.1992 45.1855C24.1992 58.3239 29.0349 68.9746 35 68.9746Z" stroke="#2B2A29" stroke-width="1.5" stroke-miterlimit="10" stroke-linecap="round" stroke-linejoin="round"/>
<path d="M35.0684 68.9746V13.877" stroke="#2B2A29" stroke-width="1.5" stroke-miterlimit="10" stroke-linecap="round" stroke-linejoin="round"/>
<path d="M40.6055 7.17773V8.3043C40.6055 11.3818 38.1104 13.877 35.0328 13.877H34.9672C31.8896 13.877 29.3945 11.3818 29.3945 8.3043V7.17773" stroke="#2B2A29" stroke-width="1.5" stroke-miterlimit="10" stroke-linecap="round" stroke-linejoin="round"/>
<path d="M58.7891 45.1855H11.2793" stroke="#2B2A29" stroke-width="1.5" stroke-miterlimit="10" stroke-linecap="round" stroke-linejoin="round"/>
<path d="M20.1651 1.02539H63.6426C65.3416 1.02539 66.7188 2.4027 66.7188 4.10156C66.7188 5.80043 65.3416 7.17773 63.6426 7.17773H6.35742C4.65842 7.17773 3.28125 5.80043 3.28125 4.10156C3.28125 2.4027 4.65842 1.02539 6.35742 1.02539H15.3799" stroke="#2B2A29" stroke-width="1.5" stroke-miterlimit="10" stroke-linecap="round" stroke-linejoin="round"/>
<path d="M55.3643 32.8809H14.6357" stroke="#2B2A29" stroke-width="1.5" stroke-miterlimit="10" stroke-linecap="round" stroke-linejoin="round"/>
<path d="M55.3643 57.4902H14.6357" stroke="#2B2A29" stroke-width="1.5" stroke-miterlimit="10" stroke-linecap="round" stroke-linejoin="round"/>
<path d="M17.8711 21.2325C13.9857 22.2038 10.9519 25.2376 9.9805 29.123C9.88084 29.5216 9.31455 29.5216 9.21488 29.123C8.24349 25.2376 5.2097 22.2038 1.32429 21.2325C0.925757 21.1328 0.925757 20.5665 1.32429 20.4668C5.2097 19.4954 8.24349 16.4617 9.21488 12.5762C9.31455 12.1777 9.88084 12.1777 9.9805 12.5762C10.9519 16.4617 13.9857 19.4954 17.8711 20.4668C18.2695 20.5665 18.2695 21.1328 17.8711 21.2325Z" stroke="#2B2A29" stroke-width="1.5" stroke-miterlimit="10" stroke-linecap="round" stroke-linejoin="round"/>
<path d="M68.6758 21.2325C64.7904 22.2038 61.7566 25.2376 60.7852 29.123C60.6855 29.5216 60.1192 29.5216 60.0196 29.123C59.0482 25.2376 56.0144 22.2038 52.129 21.2325C51.7304 21.1328 51.7304 20.5665 52.129 20.4668C56.0144 19.4954 59.0482 16.4617 60.0196 12.5762C60.1192 12.1777 60.6855 12.1777 60.7852 12.5762C61.7566 16.4617 64.7904 19.4954 68.6758 20.4668C69.0743 20.5665 69.0743 21.1328 68.6758 21.2325Z" stroke="#2B2A29" stroke-width="1.5" stroke-miterlimit="10" stroke-linecap="round" stroke-linejoin="round"/>
<path d="M13.6803 62.8223C10.7615 63.552 8.48237 65.8311 7.75271 68.7499C7.67792 69.0493 7.25245 69.0493 7.17753 68.7499C6.44786 65.8311 4.16876 63.552 1.24995 62.8223C0.950537 62.7475 0.950537 62.322 1.24995 62.2471C4.16876 61.5174 6.44786 59.2383 7.17753 56.3195C7.25231 56.0201 7.67778 56.0201 7.75271 56.3195C8.48237 59.2383 10.7615 61.5174 13.6803 62.2471C13.9797 62.322 13.9797 62.7475 13.6803 62.8223Z" stroke="#2B2A29" stroke-width="1.5" stroke-miterlimit="10" stroke-linecap="round" stroke-linejoin="round"/>
<path d="M68.7501 62.8223C65.8313 63.552 63.5522 65.8311 62.8225 68.7499C62.7477 69.0493 62.3223 69.0493 62.2474 68.7499C61.5177 65.8311 59.2386 63.552 56.3198 62.8223C56.0204 62.7475 56.0204 62.322 56.3198 62.2471C59.2386 61.5174 61.5177 59.2383 62.2474 56.3195C62.3221 56.0201 62.7476 56.0201 62.8225 56.3195C63.5522 59.2383 65.8313 61.5174 68.7501 62.2471C69.0494 62.322 69.0494 62.7475 68.7501 62.8223Z" stroke="#2B2A29" stroke-width="1.5" stroke-miterlimit="10" stroke-linecap="round" stroke-linejoin="round"/>
</svg>
