<svg width="88" height="76" viewBox="0 0 88 76" fill="none" xmlns="http://www.w3.org/2000/svg">
<path fill-rule="evenodd" clip-rule="evenodd" d="M83.2874 17.98H80.7799L82.0349 5.86749L83.2874 17.98ZM80.3874 21.39H83.6799L84.3449 27.27H87.9124L84.5024 1.12499H79.7999L76.2324 27.2675H79.7599L80.3874 21.39ZM69.2174 15.275V27.2675H72.8624V1.12499H69.2174V11.865H66.2374V1.12499H62.5924V27.2675H66.2374V15.275H69.2174ZM48.6024 19.705C48.5624 20.3325 48.5624 20.5675 48.5624 21.115C48.5624 23.3875 48.8374 24.485 49.6999 25.6625C50.7199 27.035 52.0899 27.6625 54.0899 27.6625C57.4599 27.6625 59.3824 25.7025 59.3824 22.215C59.3824 19.98 58.4424 17.315 56.7574 14.8475L54.9149 12.1825C52.4849 8.53749 52.3274 8.18499 52.3274 6.57749C52.3274 5.00999 52.8749 4.14749 53.8549 4.14749C54.6774 4.14749 55.2649 4.73499 55.3849 5.79249C55.4624 6.33999 55.5024 6.81249 55.5024 8.14499L59.0699 7.79249C59.0699 5.63749 59.0699 5.51999 58.8749 4.53999C58.3649 2.14999 56.5624 0.737488 54.0924 0.737488C50.8399 0.737488 48.7224 2.93249 48.7224 6.38249C48.7224 8.69499 49.4274 10.4975 51.7024 13.87L53.5049 16.535C55.3074 18.925 55.7399 19.945 55.7399 21.67C55.7399 23.355 55.1924 24.2575 54.0924 24.2575C52.6424 24.2575 52.2099 23.395 52.2099 20.6125V19.555L48.6024 19.705ZM45.2749 1.12499H41.6299V27.2675H45.2749V1.12499ZM35.0074 27.27L38.8074 1.12499H35.3199L33.2424 17.0375L31.0474 1.12499H27.4424L31.3999 27.2675H35.0074V27.27ZM21.4474 17.98H18.9374L20.1924 5.86749L21.4474 17.98ZM18.5449 21.39H21.8374L22.5049 27.27H26.0724L22.6624 1.12499H17.9574L14.3899 27.27H17.9174L18.5449 21.39ZM7.7299 9.94499L11.0224 1.12499H7.2999L3.7324 10.9625V1.12499H0.0874023V27.2675H3.7324V19.1925L5.2999 14.92L8.0049 27.2675H11.8074L7.7299 9.94499Z" fill="#2B2A29"/>
<path d="M35.74 52.905V60.345H44.69H51.565H58.125V52.905H51.565H44.69H35.74ZM35.74 37.99V45.43H43.1975H48.925H58.1275V37.99H35.74ZM35.74 67.8175V75.2675H58.125V67.8575H43.195V67.8175H35.74Z" fill="#2B2A29"/>
<path d="M73.4324 55.7975H70.9298V55.775H68.0424V45.525H72.2498C74.0598 45.525 75.9073 46.06 76.8748 47.0025C77.8648 48.025 78.3549 49.22 78.3549 50.565C78.3574 53.4 76.1623 55.7975 73.4324 55.7975ZM60.6124 75.2675H68.0698V58.845L78.7748 75.2675H87.8923L79.2548 61.81C81.3623 60.985 82.4023 60.205 83.6998 58.38C85.2648 56.17 86.0523 53.81 86.0523 51.3075V50.34C86.0523 46.235 84.7148 44.1725 82.4573 41.9075C80.2148 39.69 76.8723 38.1325 72.7198 38.1325H60.5898L60.6124 75.2675Z" fill="#2B2A29"/>
<path d="M0.109863 75.2675H8.17986L17.0574 55.2175L17.0674 55.1925L17.7574 56.7925L25.9174 75.2675H34.0099L17.0524 37.3775L0.109863 75.2675Z" fill="#2B2A29"/>
</svg>
