<svg width="67" height="80" viewBox="0 0 67 80" fill="none" xmlns="http://www.w3.org/2000/svg">
<path d="M65.9811 0.267731H0.267578V65.9813H65.9811V0.267731Z" fill="#2B2A29"/>
<path fill-rule="evenodd" clip-rule="evenodd" d="M34.8592 27.992L43.8525 4.8996L18.8833 27.992L39.6008 34.8594L34.8538 28.0054L34.8592 27.992Z" fill="#FEFEFE"/>
<path fill-rule="evenodd" clip-rule="evenodd" d="M43.5607 27.9946L43.5634 27.992L47.3653 18.2383L36.8191 27.992L36.811 27.9973L45.5687 30.9023L43.5607 27.9946Z" fill="#7AB933"/>
<path d="M43.4083 58.68C43.5314 58.68 43.6412 58.664 43.7403 58.6292C43.8367 58.597 43.9197 58.5381 43.9866 58.4551C44.0535 58.3722 44.1044 58.2651 44.1392 58.1285C44.174 57.992 44.1927 57.8206 44.1927 57.6091C44.1927 57.4083 44.1767 57.245 44.1472 57.1165C44.1178 56.9879 44.0696 56.8862 44.0053 56.8139C43.9411 56.739 43.8608 56.6881 43.767 56.6613C43.6733 56.6319 43.5609 56.6185 43.4324 56.6185H42.9478C42.9076 56.6185 42.8862 56.6372 42.8862 56.672V58.6265C42.8862 58.6613 42.9076 58.68 42.9478 58.68H43.4083ZM43.5314 56.0509C43.7322 56.0509 43.917 56.0776 44.0857 56.1285C44.2543 56.1794 44.3989 56.2651 44.5167 56.3855C44.6345 56.506 44.7255 56.664 44.7925 56.8594C44.8594 57.0549 44.8915 57.2958 44.8915 57.5823C44.8915 57.8956 44.8567 58.158 44.7871 58.3748C44.7175 58.589 44.6211 58.7657 44.498 58.8969C44.3748 59.0308 44.2276 59.1272 44.0562 59.1861C43.8848 59.245 43.6974 59.2744 43.4993 59.2744H42.9986C42.9531 59.2744 42.921 59.2771 42.9076 59.2825C42.8915 59.2878 42.8835 59.3039 42.8835 59.328V61.2048C42.8835 61.2557 42.8567 61.2825 42.8059 61.2825H42.2677C42.2168 61.2825 42.1901 61.2557 42.1901 61.2048V56.1285C42.1901 56.0776 42.2168 56.0509 42.2677 56.0509H43.5314ZM39.8688 60.0723C39.8688 60.4873 39.7296 60.8032 39.4538 61.0228C39.178 61.2396 38.8059 61.3494 38.34 61.3494C37.8741 61.3494 37.5154 61.2396 37.2637 61.0228C37.012 60.8059 36.8862 60.4873 36.8862 60.0723V56.1285C36.8862 56.0776 36.913 56.0509 36.9638 56.0509H37.502C37.5529 56.0509 37.5796 56.0776 37.5796 56.1285V59.8581C37.5796 60.0268 37.5984 60.166 37.6385 60.2784C37.676 60.3882 37.7296 60.4739 37.7965 60.5355C37.8634 60.5971 37.9438 60.6399 38.0375 60.6667C38.1312 60.6934 38.2383 60.7041 38.3561 60.7041C38.4685 60.7041 38.5756 60.6908 38.68 60.6667C38.7818 60.6399 38.8701 60.597 38.9451 60.5328C39.0201 60.4685 39.079 60.3829 39.1218 60.2704C39.1646 60.1606 39.1861 60.0214 39.1861 59.8527V56.1312C39.1861 56.0803 39.2128 56.0535 39.2637 56.0535H39.7938C39.8447 56.0535 39.8715 56.0803 39.8715 56.1312V60.0723H39.8688ZM34.7443 58.6667C34.7443 58.913 34.7336 59.1486 34.7148 59.3735C34.6934 59.5984 34.664 59.8072 34.6265 60C34.589 60.1928 34.5408 60.3668 34.4846 60.5221C34.4284 60.6774 34.3641 60.8059 34.2918 60.9023C34.2249 60.9987 34.1499 61.079 34.0696 61.1379C33.9866 61.1968 33.8956 61.2423 33.7965 61.2718C33.6974 61.3039 33.5877 61.3226 33.4699 61.3333C33.3521 61.344 33.2209 61.3494 33.079 61.3494C32.7925 61.3494 32.5542 61.3226 32.3641 61.2718C32.174 61.2209 32.0107 61.1004 31.8715 60.9103C31.7992 60.8139 31.7349 60.6854 31.6787 60.5301C31.6225 60.3748 31.5743 60.1981 31.5368 60.0027C31.4993 59.8072 31.4699 59.5984 31.4484 59.3735C31.427 59.1486 31.4163 58.913 31.4163 58.6667C31.4163 58.1794 31.4565 57.7376 31.5368 57.344C31.6171 56.9505 31.7269 56.6533 31.8715 56.4605C32.0107 56.2651 32.1767 56.1365 32.3721 56.075C32.5676 56.0134 32.8085 55.9839 33.095 55.9839C33.3815 55.9839 33.6198 56.0134 33.8072 56.075C33.9946 56.1365 34.1579 56.2651 34.2945 56.4605C34.4391 56.656 34.5488 56.9505 34.6292 57.344C34.7041 57.7376 34.7443 58.1794 34.7443 58.6667ZM32.1446 58.672C32.1446 58.8728 32.1499 59.0656 32.1633 59.2557C32.1767 59.4458 32.1954 59.6198 32.2168 59.7778C32.2409 59.9357 32.2677 60.0776 32.3025 60.1981C32.3346 60.3186 32.3721 60.4096 32.415 60.4712C32.4819 60.5676 32.5595 60.6345 32.6506 60.672C32.7416 60.7068 32.8835 60.7256 33.0763 60.7256C33.2771 60.7256 33.4217 60.7068 33.51 60.672C33.601 60.6372 33.6787 60.5703 33.7456 60.4712C33.7858 60.4096 33.8233 60.3186 33.8581 60.1981C33.8902 60.0776 33.9197 59.9384 33.9437 59.7778C33.9678 59.6198 33.9839 59.4458 33.9973 59.2557C34.0107 59.0656 34.016 58.8701 34.016 58.672C34.016 58.4659 34.0107 58.2704 33.9973 58.0803C33.9839 57.8902 33.9652 57.7162 33.9437 57.5582C33.9197 57.4003 33.8929 57.2584 33.8581 57.1379C33.8259 57.0174 33.7885 56.9264 33.7456 56.8648C33.6787 56.7684 33.601 56.6988 33.5154 56.6613C33.427 56.6238 33.2878 56.6024 33.0923 56.6024C32.8915 56.6024 32.747 56.6211 32.6586 56.6613C32.5676 56.6988 32.4899 56.7684 32.423 56.8648C32.3828 56.9264 32.3427 57.0174 32.3079 57.1379C32.2731 57.2584 32.2436 57.3976 32.2195 57.5582C32.1954 57.7162 32.1794 57.8902 32.166 58.0803C32.1499 58.2704 32.1446 58.4685 32.1446 58.672ZM28.5247 57.5823C28.5247 57.2289 28.4658 56.9799 28.3507 56.8353C28.2356 56.6908 28.0482 56.6211 27.7858 56.6211H27.2851C27.245 56.6211 27.2235 56.6399 27.2235 56.6747V58.581C27.2235 58.6104 27.245 58.6265 27.2851 58.6265H27.7456C27.9973 58.6265 28.1901 58.5328 28.3213 58.3427C28.4578 58.1526 28.5247 57.8983 28.5247 57.5823ZM29.2342 57.4966C29.2342 57.826 29.1807 58.1017 29.0736 58.332C28.9665 58.5596 28.8005 58.7523 28.5729 58.9049C28.5114 58.9451 28.498 59.004 28.5355 59.0817L29.5421 61.2048C29.5529 61.2262 29.5529 61.2423 29.5448 61.2584C29.5368 61.2744 29.5207 61.2825 29.494 61.2825H28.8621C28.8219 61.2825 28.7871 61.2584 28.763 61.2128L27.8634 59.2128C27.8474 59.1834 27.8233 59.1673 27.7858 59.1673H27.2771C27.2423 59.1673 27.2235 59.1834 27.2235 59.2128V61.2048C27.2235 61.2557 27.1968 61.2825 27.1459 61.2825H26.6077C26.5569 61.2825 26.5301 61.2557 26.5301 61.2048V56.1285C26.5301 56.0776 26.5569 56.0509 26.6077 56.0509H27.8848C28.3614 56.0509 28.7041 56.1713 28.9156 56.4123C29.1272 56.6533 29.2342 57.0147 29.2342 57.4966ZM24.332 61.095C24.332 61.1459 24.3106 61.178 24.2704 61.1861C24.1633 61.2316 24.0107 61.2718 23.8126 61.3012C23.6144 61.3307 23.3949 61.3467 23.1539 61.3467C22.8059 61.3467 22.5167 61.2851 22.2838 61.1647C22.0535 61.0442 21.8688 60.8701 21.7296 60.6426C21.5903 60.415 21.494 60.1365 21.4377 59.8126C21.3815 59.4859 21.3521 59.1165 21.3521 58.7015C21.3521 58.2811 21.3869 57.9036 21.4591 57.5663C21.5314 57.2316 21.6412 56.9451 21.7938 56.7095C21.9464 56.4739 22.1419 56.2918 22.3828 56.166C22.6238 56.0402 22.913 55.9786 23.253 55.9786C23.4163 55.9786 23.5796 55.9866 23.7403 56.0027C23.9009 56.0187 24.0482 56.0428 24.182 56.0803C24.2115 56.091 24.2249 56.1124 24.2195 56.1499L24.1874 56.664C24.1874 56.6988 24.166 56.7122 24.1258 56.7015C23.8688 56.6399 23.6118 56.6078 23.3494 56.6078C22.9023 56.6078 22.5836 56.7738 22.3882 57.1084C22.1927 57.4404 22.0964 57.9759 22.0964 58.7068C22.0964 59.0495 22.1124 59.3494 22.1419 59.6037C22.174 59.8581 22.2276 60.0669 22.3079 60.2356C22.3882 60.4016 22.4953 60.5274 22.6345 60.6078C22.7737 60.6908 22.9478 60.7309 23.1566 60.7309C23.3521 60.7309 23.5073 60.7149 23.6251 60.6854C23.6519 60.6747 23.6626 60.6533 23.6626 60.6238V58.9853C23.6626 58.9531 23.6466 58.9398 23.6171 58.9398H23.0468C22.996 58.9398 22.9692 58.913 22.9692 58.8621V58.4632C22.9692 58.4123 22.996 58.3855 23.0468 58.3855H24.2463C24.2972 58.3855 24.3239 58.4123 24.3239 58.4632V61.095H24.332Z" fill="#FEFEFE"/>
<path d="M55.6867 48.6425H54.2463L54.9665 41.6867L55.6867 48.6425ZM54.0214 50.6024H55.9116L56.2945 53.9786H58.3427L56.3855 38.9638H53.684L51.6358 53.9786H53.6626L54.0214 50.6024ZM47.6064 47.0897V53.9786H49.7001V38.9638H47.6064V45.1325H45.8955V38.9638H43.8018V53.9786H45.8955V47.0897H47.6064ZM35.767 49.6332C35.7456 49.9946 35.7456 50.1285 35.7456 50.4444C35.7456 51.751 35.9036 52.3802 36.3989 53.0549C36.9852 53.842 37.7724 54.2035 38.921 54.2035C40.8567 54.2035 41.9598 53.079 41.9598 51.0736C41.9598 49.7911 41.419 48.2597 40.4524 46.8407L39.3949 45.3092C38 43.2155 37.9089 43.012 37.9089 42.091C37.9089 41.1914 38.2249 40.6961 38.7871 40.6961C39.261 40.6961 39.5984 41.0334 39.6653 41.6412C39.7108 41.9571 39.7322 42.2276 39.7322 42.9906L41.7804 42.7871C41.7804 41.5502 41.7804 41.4806 41.668 40.9183C41.3761 39.5448 40.34 38.7336 38.921 38.7336C37.0522 38.7336 35.8366 39.9946 35.8366 41.9759C35.8366 43.3039 36.2409 44.34 37.5475 46.2758L38.5836 47.8072C39.6198 49.1807 39.8661 49.7644 39.8661 50.755C39.8661 51.7242 39.5502 52.2409 38.921 52.2409C38.0883 52.2409 37.8393 51.7456 37.8393 50.1472V49.5395L35.767 49.6332ZM33.8554 38.9638H31.7617V53.9786H33.8554V38.9638ZM27.9598 53.9786L30.1445 38.9638H28.1419L26.9478 48.1017L25.6867 38.9638H23.6144L25.8875 53.9786H27.9598ZM20.1713 48.6425H18.7309L19.4511 41.6867L20.1713 48.6425ZM18.506 50.6024H20.3962L20.7791 53.9786H22.8273L20.8701 38.9638H18.1686L16.1204 53.9786H18.1472L18.506 50.6024ZM12.2945 44.0294L14.1847 38.9638H12.0482L9.99996 44.6131V38.9638H7.90625V53.9786H9.99996V49.3413L10.8996 46.8889L12.4524 53.9786H14.6372L12.2945 44.0294Z" fill="#FEFEFE"/>
<path d="M5.36263 77.6626C5.36263 76.7041 4.7977 76.3507 4.51925 76.1794C4.73076 76.0348 5.26624 75.6037 5.26624 74.83C5.26624 73.6519 4.50854 72.8568 3.09221 72.8568H0.267578V79.6734H3.23679C4.45232 79.6734 5.36263 78.9639 5.36263 77.6626ZM3.5902 74.9157C3.5902 75.1834 3.44562 75.4699 2.98779 75.4699H1.94362V74.3588H2.98779C3.44562 74.3588 3.5902 74.6479 3.5902 74.9157ZM3.68659 77.5663C3.68659 77.8527 3.53398 78.1687 3.07347 78.1687H1.94362V76.9719H3.07347C3.53398 76.9746 3.68659 77.2798 3.68659 77.5663ZM11.4885 76.2651C11.4885 75.2396 11.5179 74.2838 10.7977 73.5636C10.2997 73.0656 9.72407 72.7979 8.89141 72.7979C8.05874 72.7979 7.48311 73.0656 6.98512 73.5636C6.26758 74.2811 6.29435 75.2396 6.29435 76.2651C6.29435 77.2905 6.2649 78.2463 6.98512 78.9638C7.48311 79.4618 8.05874 79.7296 8.89141 79.7296C9.72407 79.7296 10.2997 79.4618 10.7977 78.9638C11.5179 78.2463 11.4885 77.2905 11.4885 76.2651ZM9.8151 76.2651C9.8151 77.51 9.71872 77.7296 9.56611 77.9304C9.44295 78.0937 9.20198 78.2356 8.89676 78.2356C8.59154 78.2356 8.35058 78.091 8.22742 77.9304C8.07481 77.7296 7.97842 77.51 7.97842 76.2651C7.97842 75.0201 8.07481 74.7898 8.22742 74.589C8.35058 74.4257 8.59154 74.2918 8.89676 74.2918C9.20198 74.2918 9.44295 74.4257 9.56611 74.589C9.71872 74.7898 9.8151 75.0201 9.8151 76.2651ZM18.04 79.6734L16.5648 76.83C17.1002 76.5622 17.6759 75.9786 17.6759 75.0495C17.6759 73.9304 16.862 72.8568 15.3492 72.8568H12.6478V79.6734H14.3238V77.1352H14.8887L16.0962 79.6734H18.04ZM15.9998 75.0495C15.9998 75.4029 15.7321 75.7376 15.2716 75.7376H14.3238V74.3588H15.2716C15.7321 74.3588 15.9998 74.6934 15.9998 75.0495ZM24.214 79.6734V72.8568H22.538V76.2838L20.3559 72.8568H18.8914V79.6734H20.5674V76.2463L22.7495 79.6734H24.214ZM29.7776 73.3173V72.8568H25.1913V73.3173H27.2207V79.676H27.7375V73.3173H29.7776ZM35.3305 76.2651C35.3305 74.7229 35.3198 74.1205 34.6986 73.4967C34.2488 73.0469 33.6357 72.7979 32.9931 72.7979C32.3506 72.7979 31.7401 73.0469 31.2877 73.4967C30.6665 74.1178 30.6558 74.7229 30.6558 76.2651C30.6558 77.8072 30.6665 78.4096 31.2877 79.0335C31.7375 79.4833 32.3506 79.7323 32.9931 79.7323C33.6357 79.7323 34.2488 79.4833 34.6986 79.0335C35.3225 78.4096 35.3305 77.8072 35.3305 76.2651ZM34.8138 76.2651C34.8138 77.7296 34.7763 78.257 34.2863 78.7443C33.9409 79.0897 33.4831 79.2717 32.9931 79.2717C32.5059 79.2717 32.0454 79.0897 31.7 78.7443C31.2127 78.257 31.1725 77.7296 31.1725 76.2651C31.1725 74.8005 31.21 74.2731 31.7 73.7858C32.0454 73.4404 32.5032 73.2584 32.9931 73.2584C33.4804 73.2584 33.9409 73.4404 34.2863 73.7858C34.7763 74.2731 34.8138 74.8005 34.8138 76.2651Z" fill="#2B2A29"/>
<path d="M41.4588 77.6064C41.4588 76.6479 40.8939 76.2945 40.6154 76.1232C40.827 75.9786 41.3624 75.5475 41.3624 74.7738C41.3624 73.5957 40.6047 72.8005 39.1884 72.8005H36.3638V79.6171H39.333C40.5485 79.6171 41.4588 78.9076 41.4588 77.6064ZM39.6891 74.8568C39.6891 75.1245 39.5445 75.411 39.0867 75.411H38.0425V74.2999H39.0867C39.5445 74.3025 39.6891 74.589 39.6891 74.8568ZM39.7828 77.51C39.7828 77.7965 39.6302 78.1124 39.1697 78.1124H38.0398V76.9157H39.1697C39.6302 76.9157 39.7828 77.2236 39.7828 77.51ZM47.673 77.2236V72.7979H45.997V77.1834C45.997 77.8153 45.6328 78.1794 45.0786 78.1794C44.5244 78.1794 44.179 77.8153 44.179 77.1834V72.7979H42.503V77.2209C42.503 78.7149 43.6623 79.6734 45.0786 79.6734C46.495 79.6734 47.673 78.7175 47.673 77.2236ZM50.6128 79.6171V72.7979H48.9367V79.6144H50.6128V79.6171ZM56.5298 79.6171V78.1232H53.6676V72.7979H51.9916V79.6144H56.5298V79.6171ZM62.5806 76.2088C62.5806 75.1352 62.6663 74.2651 61.8711 73.4699C61.4026 73.0013 60.7413 72.8005 60.0318 72.8005H57.5043V79.6171H60.0318C60.7413 79.6171 61.3999 79.4163 61.8711 78.9478C62.669 78.1526 62.5806 77.2798 62.5806 76.2088ZM60.9073 76.2088C60.9073 77.3681 60.8591 77.5502 60.7252 77.7403C60.5726 77.9705 60.3423 78.1232 59.922 78.1232H59.1857V74.2918H59.922C60.3423 74.2918 60.5726 74.4444 60.7252 74.6747C60.8591 74.8675 60.9073 75.0576 60.9073 76.2088ZM65.9809 72.7979H64.0077L64.428 77.3467H65.5579L65.9809 72.7979ZM65.7988 79.6171V78.075H64.1897V79.6171H65.7988Z" fill="#2B2A29"/>
<path d="M60.8671 5.03346H61.258C61.4561 5.03346 61.6087 4.99063 61.7131 4.90763C61.8175 4.82463 61.8711 4.69879 61.8711 4.53547C61.8711 4.36947 61.8175 4.25702 61.7131 4.19009C61.6087 4.12583 61.4561 4.09103 61.258 4.09103H60.8671V5.03346ZM60.1094 6.84605V3.48862H61.3196C61.4989 3.48862 61.6649 3.50468 61.8202 3.53949C61.9755 3.57429 62.1121 3.63052 62.2299 3.71084C62.3477 3.79116 62.4387 3.89826 62.5083 4.03212C62.5779 4.16599 62.61 4.33199 62.61 4.53012C62.61 4.77644 62.5565 4.97992 62.4467 5.14056C62.3396 5.3012 62.1924 5.41901 62.013 5.49933L62.776 6.84337H61.9273L61.2847 5.6332H60.8671V6.84337H60.1094V6.84605Z" fill="#FEFEFE"/>
<path d="M63.1216 3.34671C62.6557 2.88085 62.0132 2.59437 61.301 2.59437C60.5888 2.59437 59.9462 2.88352 59.4804 3.34671C59.0145 3.81257 58.728 4.45514 58.728 5.16733C58.728 5.87683 59.0172 6.52208 59.4804 6.98794C59.9462 7.45381 60.5888 7.74028 61.301 7.74028C62.0132 7.74028 62.6557 7.45113 63.1216 6.98794C63.5874 6.52208 63.8739 5.87951 63.8739 5.16733C63.8739 4.45782 63.5874 3.81257 63.1216 3.34671ZM61.301 2.02676C62.1684 2.02676 62.9529 2.3775 63.5205 2.9451C64.0881 3.51271 64.4415 4.29718 64.4415 5.16465C64.4415 6.03212 64.0908 6.81659 63.5205 7.38419C62.9529 7.9518 62.1684 8.30253 61.301 8.30253C60.4335 8.30253 59.649 7.9518 59.0814 7.38419C58.5138 6.81659 58.1631 6.03212 58.1631 5.16465C58.1631 4.29718 58.5138 3.51271 59.0814 2.9451C59.649 2.38018 60.4362 2.02676 61.301 2.02676Z" fill="#FEFEFE"/>
</svg>
